<?xml version="1.0" encoding="UTF-8"?>
<svg id="Layer_1" data-name="Layer 1" xmlns="http://www.w3.org/2000/svg" viewBox="0 0 329.9 390">
  <defs>
    <style>
      .cls-1 {
        fill: #fafafb;
      }

      .cls-2 {
        fill: #ec893e;
      }
    </style>
  </defs>
  <path class="cls-1" d="M251.54,177l-3.98-16.56c-9.87-27.22-31.12-48.12-58.88-56.38-17.44-5.18-34.43-5.5-52.58-4.49-8.15,3.36-16.87,3.31-25.36,3.92l-15.99,4.38-12.14,3.8c-21.47,6.72-50.45,23.93-63.77,41.67l-13.22,17.6c-.51.68-3.04,1.76-3.65,1.32-.83-.59-1.97-2.76-1.97-3.95L.16,58.04l4.51-14.44C9.7,27.47,20.93,15.14,35.09,7.65c9.43-5,17.7-5.08,27.97-4.36,13.07.93,26.63.9,39.95.21l23.83-1.24,15.05-.9,16.38-.98c6.92-.41,14.3-.59,21.1,0l14.06,1.22,25.86,3.14,14.91,3.8,11.1,3.77c30.25,10.27,54.45,39.02,65.24,69.26l4.17,16.09c4.53,17.49,4.04,34.6-.23,51.82l-3.29,13.23c-5.72,23.09-28.26,57.28-48.08,70.44l-18.88,12.53c-3.29,2.18-7.23,3.79-11.26,3.59l10.56-18.42,4.12-10.21,4.08-16.22c2.05-8.12,1.88-18.77-.18-27.39v-.04Z"/>
  <path class="cls-1" d="M102.43,282.11l-3.92-15.53-2.65-12.52c-.54-2.57-.26-5.29,1.32-8.89l19.09,18.15c2.77,2.64,8.67,5.32,12.6,6.99l8.6,3.65,14.91,3.93c12,3.16,24.61.8,37.31.74,4.24-.03,9.84-2.06,13.9-3.03l14.25-3.38,10.29-3.55c23.59-8.13,48.09-23.64,63.56-43.42,4.41-5.62,6.58-12.72,14.52-15l14.47,27.91,3.49,9.69,3.84,16.46c2.37,10.17,2.59,22.71.06,33l-3.95,16.08-3.83,10.71c-12.4,28.82-35.49,50.35-65.22,60.27l-19.19,4.37c-7.95,1.81-18.05,1.57-25.77-.21l-16.19-3.74c-42.97-12.88-73.43-50.48-87.78-91.93l-3.73-10.78v.03Z"/>
  <path class="cls-1" d="M159.24,389.34l-108.75-.04-11.35-4.36c-5.75-2.21-11.47-6.72-16.57-10.8-8.95-7.18-16.03-17.56-18.62-28.66L.11,328.99l.13-91.27c0-5.35,2.61-11.67,3.1-16.61.63-6.31,1.27-11.41,3.31-17.05l3.7-10.17,4.28-9.62c2.16-4.85,5.46-11.07,9.08-14.75l22.53-22.94c1.9-1.93,5.64-4,8.1-5.69,7.53-5.16,15.11-9.49,23.64-12.79l8.36-3.24c4.14-1.61,8.05-2.8,12.59-3.73l10.44-2.13c-.1,9.64-13.37,12.92-20.26,30.42l-3.92,9.93c-1.42,3.6-3.29,9.4-3.87,13.07l-4,25.25c-1.04,6.58-1.12,15.2-.19,22.11l4.32,32.19,3.49,16.42,4.13,15.94,3.58,11.47,4.08,10.67c8.19,21.44,20.04,40.41,36.61,56.1,8.16,8.46,15.79,15.54,25.33,22.71l.58,4.08v-.03Z"/>
  <path class="cls-2" d="M181.43,252.26c-12.05,3.52-18.35,4.78-32.36-.28l-9.24-3.34c-3.04-1.1-5.99-2.56-8.54-4.26-16.42-10.85-23.85-23.79-27.91-41.95-2.01-8.98-2.47-16.6.16-25.56l3.08-10.41c4.44-15.04,19.65-28.79,34.45-35.4,11.93-5.34,24.56-5.44,38.44-3.7,3.06.39,8.72,2.85,11.76,4.05,15.2,6.06,26.39,17.55,33.07,32.36,1.19,2.65,2.2,4.9,4.16,7.75v37.52c-2,2.87-2.67,5.16-4.23,7.91l-7.72,13.57c-5.32,9.35-15.74,13.98-25.16,18.77-2.86,1.46-6.59,1.97-9.96,2.95h0Z"/>
</svg>